<?xml version="1.0" standalone="no"?>
<!DOCTYPE svg PUBLIC "-//W3C//DTD SVG 20010904//EN"
 "http://www.w3.org/TR/2001/REC-SVG-20010904/DTD/svg10.dtd">
<svg version="1.0" xmlns="http://www.w3.org/2000/svg"
 width="300.000000pt" height="300.000000pt" viewBox="0 0 300.000000 300.000000"
 preserveAspectRatio="xMidYMid meet">
<metadata>
Created by potrace 1.14, written by Peter Selinger 2001-2017
</metadata>
<g transform="translate(0.000000,300.000000) scale(0.100000,-0.100000)"
fill="#000000" stroke="none">
<path d="M1428 2794 c-2 -1 -16 -4 -33 -7 -215 -38 -425 -231 -563 -517 -47
-97 -101 -254 -118 -345 -2 -11 -8 -42 -14 -70 -5 -27 -13 -68 -16 -90 -10
-64 -13 -446 -4 -495 4 -25 14 -79 20 -120 18 -113 77 -304 122 -400 56 -119
128 -232 143 -226 8 3 11 -2 8 -12 -5 -20 112 -144 181 -192 50 -34 158 -89
184 -95 10 -2 35 -7 57 -13 37 -8 179 -8 215 1 115 27 256 106 289 162 11 19
25 35 31 35 6 0 9 4 6 9 -5 8 30 46 43 46 3 0 5 4 3 8 -1 4 10 12 25 18 55 19
187 263 241 444 29 99 55 212 69 310 10 64 10 444 0 510 -6 44 -12 77 -22 135
-30 168 -126 403 -224 551 -43 65 -144 178 -192 214 -69 53 -168 105 -224 120
-16 5 -37 10 -45 12 -17 5 -179 11 -182 7z"/>
</g>
</svg>
